<svg id="Capa_1" data-name="Capa 1" xmlns="http://www.w3.org/2000/svg" viewBox="0 0 434.33 333"><defs><style>.cls-1{fill:#c01718;}.cls-2{fill:#1f497d;}</style></defs><polygon class="cls-1" points="18.19 40.27 0 148.96 86.17 148.96 102.63 40.27 18.19 40.27"/><polygon class="cls-2" points="116.05 0 102.63 104.36 223.44 104.36 235.57 0 116.05 0"/><polygon class="cls-1" points="99.6 109.27 86.17 214.35 206.56 214.35 219.11 109.27 99.6 109.27"/><polygon class="cls-2" points="80.54 229.07 70.15 333 192.26 333 202.22 229.07 80.54 229.07"/><polygon class="cls-2" points="238.6 48.93 326.94 48.93 316.11 140.74 225.61 140.74 238.6 48.93"/><polygon class="cls-1" points="222.14 148.96 210.45 242.93 302.25 242.93 312.65 148.96 222.14 148.96"/><polygon class="cls-1" points="312.95 185.77 305.94 263.71 431.26 263.71 434.33 185.77 312.95 185.77"/></svg>