<svg id="Capa_1" data-name="Capa 1" xmlns="http://www.w3.org/2000/svg" viewBox="0 0 352.64 267.17"><defs><style>.cls-1{fill:#fff;}</style></defs><path class="cls-1" d="M23.67,46.5,22.26,55,18.85,75.45l-4.11,24.66-3.55,21.34c-.58,3.47-1.19,7-1.73,10.43l0,.14a2.54,2.54,0,0,0,2.41,3.17H79.29a2.54,2.54,0,0,0,2.42-1.84L83,124.82l3.07-20.37L89.79,79.7,93,58.39c.53-3.47,1.07-6.94,1.57-10.42l0-.14a2.55,2.55,0,0,0-2.41-3.17H26.08c-3.22,0-3.22,5,0,5h66.1L89.76,46.5,88.48,55,85.41,75.4l-3.73,24.75-3.2,21.31-1.06,7a32,32,0,0,0-.51,3.38l0,.14,2.41-1.83H11.84l2.41,3.16,1.41-8.47,3.41-20.48,4.11-24.66L26.73,58.4c.58-3.47,1.19-6.95,1.73-10.43l0-.14a2.58,2.58,0,0,0-1.75-3.08A2.52,2.52,0,0,0,23.67,46.5Z" transform="translate(-9.39 -12.91)"/><path class="cls-1" d="M100.18,15.47,96.63,43.24,91,87.48,89.68,97.59a2.51,2.51,0,0,0,2.5,2.5h82.93c3.81,0,7.66.16,11.47,0h.16a2.56,2.56,0,0,0,2.5-2.5l3.22-27.86,5.1-44.1,1.18-10.16a2.53,2.53,0,0,0-2.5-2.5h-82c-3.79,0-7.62-.15-11.41,0h-.16c-3.21,0-3.22,5,0,5H192.4c1.21,0,2.47.11,3.68,0h.16l-2.5-2.5-3.22,27.86-5.1,44.11-1.18,10.15,2.5-2.5H96c-1.2,0-2.47-.11-3.68,0h-.16l2.5,2.5,3.55-27.77,5.66-44.23,1.29-10.12a2.51,2.51,0,0,0-2.5-2.5A2.57,2.57,0,0,0,100.18,15.47Z" transform="translate(-9.39 -12.91)"/><path class="cls-1" d="M87.3,105.82l-3.56,28.06L78.09,178.3l-1.3,10.21a2.53,2.53,0,0,0,2.5,2.5h82.65c3.79,0,7.62.14,11.42,0h.17a2.58,2.58,0,0,0,2.5-2.5l3.31-27.92,5.3-44.53,1.22-10.24a2.52,2.52,0,0,0-2.5-2.5h-82c-3.79,0-7.62-.15-11.41,0H89.8c-3.21,0-3.22,5,0,5h89.72c1.21,0,2.47.11,3.68,0h.16l-2.5-2.5-3.32,27.92-5.3,44.52L171,188.51l2.5-2.5H83.15c-1.21,0-2.48-.11-3.69,0h-.17l2.5,2.5,3.57-28.07L91,116l1.29-10.21a2.51,2.51,0,0,0-2.5-2.5A2.56,2.56,0,0,0,87.3,105.82Z" transform="translate(-9.39 -12.91)"/><path class="cls-1" d="M72.39,195.73l-2.76,27.69-4.38,44.07-1,10a2.53,2.53,0,0,0,2.5,2.5h83.79c3.87,0,7.77.15,11.63,0h.17a2.57,2.57,0,0,0,2.5-2.5l2.65-27.79,4.19-43.94,1-10.05a2.53,2.53,0,0,0-2.5-2.5H86.63c-3.85,0-7.73-.15-11.57,0h-.17c-3.22,0-3.22,5,0,5h91.37c1.22,0,2.49.11,3.71,0h.17l-2.5-2.5L165,223.51l-4.19,43.94-1,10.06,2.5-2.5H70.67c-1.23,0-2.52-.11-3.75,0h-.17l2.5,2.5L72,249.81l4.38-44.07,1-10a2.52,2.52,0,0,0-2.5-2.5A2.55,2.55,0,0,0,72.39,195.73Z" transform="translate(-9.39 -12.91)"/><path class="cls-1" d="M200.65,56.31H269.8l-2.5-2.5-2.88,24.52-4.55,38.79-1,8.93,2.5-2.5H190.49l2.41,3.16,3.44-24.43,5.47-38.92,1.25-8.89a2.58,2.58,0,0,0-1.74-3.07,2.52,2.52,0,0,0-3.08,1.74L194.8,77.58l-5.47,38.91-1.26,8.89c-.22,1.58.62,3.17,2.42,3.17h70.84a2.57,2.57,0,0,0,2.5-2.5l2.87-24.53,4.55-38.79,1.05-8.92a2.51,2.51,0,0,0-2.5-2.5H200.65C197.44,51.31,197.43,56.31,200.65,56.31Z" transform="translate(-9.39 -12.91)"/><path class="cls-1" d="M185.68,132.69l-3.1,25-4.93,39.84-1.12,9.07a2.51,2.51,0,0,0,2.5,2.5h71.86a2.57,2.57,0,0,0,2.5-2.5l2.76-25.12,4.37-39.72,1-9.1a2.53,2.53,0,0,0-2.5-2.5H188.18c-3.21,0-3.22,5,0,5H259l-2.5-2.5-2.77,25.13-4.37,39.71-1,9.1,2.5-2.5H179l2.5,2.5,3.1-25,4.93-39.84,1.12-9.07a2.51,2.51,0,0,0-2.5-2.5A2.56,2.56,0,0,0,185.68,132.69Z" transform="translate(-9.39 -12.91)"/><path class="cls-1" d="M262,161.65l-1.85,20.76-3,33.05-.67,7.53a2.52,2.52,0,0,0,2.5,2.5h86c3.95,0,7.93.15,11.88,0a1.08,1.08,0,0,1,.18,0,2.55,2.55,0,0,0,2.5-2.5l.81-20.73,1.29-33,.3-7.57a2.53,2.53,0,0,0-2.5-2.5H276.27c-3.86,0-7.74-.15-11.59,0h-.17c-3.21,0-3.22,5,0,5h91.14c1.22,0,2.49.11,3.71,0h.17l-2.5-2.5-.81,20.73-1.3,33-.29,7.57,2.5-2.5H263.06c-1.27,0-2.59-.11-3.86,0H259l2.5,2.5,1.85-20.76,3-33,.67-7.53a2.52,2.52,0,0,0-2.5-2.5A2.55,2.55,0,0,0,262,161.65Z" transform="translate(-9.39 -12.91)"/></svg>