<svg id="Capa_1" data-name="Capa 1" xmlns="http://www.w3.org/2000/svg" viewBox="0 0 307.66 245.04"><defs><style>.cls-1{fill:#fff;}</style></defs><path class="cls-1" d="M122,47.92l-9,2.7L91.26,57.15,65.06,65,42.29,71.84c-3.67,1.1-7.4,2.09-11,3.31l-.17,0a3.84,3.84,0,0,0-2.75,3.62V228c0,6.85-.17,13.71,0,20.55v.28a3.78,3.78,0,0,0,4.75,3.61l8.2-2.45L61,244.08l23.86-7.14,20.74-6.2c3.34-1,6.72-1.91,10-3l.14,0a3.75,3.75,0,0,0-2-7.24l-8.2,2.46-19.72,5.9L62,236l-20.74,6.2c-3.33,1-6.78,1.8-10,3l-.15,0,4.75,3.62V85.74c0-2.2.1-4.44,0-6.64v-.28l-2.75,3.61,9-2.7,21.74-6.52L90,65.35l22.77-6.83c3.67-1.11,7.39-2.11,11-3.32l.16,0a3.76,3.76,0,1,0-2-7.24Z" transform="translate(-28.27 -8.63)"/><path class="cls-1" d="M49,181l27.36-9.78,43.22-15.44,9.89-3.54-4.75-3.61v72.41a3.82,3.82,0,0,0,2.76,3.61l10.06,2.81,24.26,6.79,29.54,8.25,25.93,7.25c4.46,1.25,8.91,2.6,13.4,3.75a6.1,6.1,0,0,0,3.39-.19l5.67-1.7,22.32-6.7,29.13-8.74,26.56-8,14.62-4.39.7-.2a3.85,3.85,0,0,0,2.75-3.62V71c0-6.87.19-13.79,0-20.66V50a3.79,3.79,0,0,0-4.75-3.62l-9.26,3L299.6,56.54l-26.76,8.64-23.27,7.5C245.81,73.9,242,75,238.25,76.33l-.16,0A3.85,3.85,0,0,0,235.34,80v68.64a3.79,3.79,0,0,0,4.75,3.61L268,146.16l44.11-9.63,10.2-2.23a3.75,3.75,0,1,0-2-7.23l-27.87,6.08-44.11,9.64L238.09,145l4.75,3.62V80l-2.75,3.62,9.26-3,22.24-7.17,26.76-8.64,23.26-7.5c3.74-1.21,7.67-2.18,11.32-3.65l.16-.05L328.34,50V213.09c0,2.2-.12,4.43,0,6.62a2.81,2.81,0,0,1,0,.29l2.75-3.62-10,3-23.84,7.15-28.82,8.65-25,7.51-8.19,2.46c-1.3.39-2.68.69-3.94,1.18l-.18,0h2l-10.32-2.88-24.66-6.89-30-8.38L142.25,221l-8.54-2.38c-1.33-.37-2.67-.86-4-1.13l-.18,0,2.75,3.62V148.64c0-2.29-2.42-4.45-4.74-3.62l-27.36,9.78L56.93,170.24,47,173.78a3.83,3.83,0,0,0-2.62,4.61A3.79,3.79,0,0,0,49,181Z" transform="translate(-28.27 -8.63)"/><path class="cls-1" d="M221.34,81.55v67.09l4.75-3.62-8.45-1.85-20.29-4.44-24.56-5.38-21.26-4.66c-3.43-.75-6.9-1.74-10.38-2.27l-.15,0,2.75,3.62V50a3.75,3.75,0,0,0-7.5,0v80a3.81,3.81,0,0,0,2.75,3.62l8.45,1.85,20.29,4.44,24.56,5.38L213.56,150c3.46.75,6.91,1.58,10.38,2.27l.15,0a3.79,3.79,0,0,0,4.75-3.61V81.55a3.75,3.75,0,1,0-7.5,0Z" transform="translate(-28.27 -8.63)"/><path class="cls-1" d="M141.17,152.25l28.16,6.58,44.56,10.4,10.2,2.39L221.34,168v62.25a3.75,3.75,0,0,0,7.5,0V168a3.82,3.82,0,0,0-2.75-3.62l-28.17-6.57L153.36,147.4,143.16,145a3.75,3.75,0,0,0-2,7.23Z" transform="translate(-28.27 -8.63)"/><path class="cls-1" d="M320.28,145.2l-27.93,6.67-44.5,10.62-10.21,2.44a3.8,3.8,0,0,0-2.75,3.62v61.7a3.75,3.75,0,0,0,7.5,0v-61.7l-2.76,3.61,27.93-6.67,44.5-10.62,10.21-2.44a3.75,3.75,0,1,0-2-7.23Z" transform="translate(-28.27 -8.63)"/><path class="cls-1" d="M122,126.38,96.61,135l-40.4,13.77L47,151.94a3.83,3.83,0,0,0-2.62,4.61A3.78,3.78,0,0,0,49,159.17l25.4-8.65,40.39-13.78,9.18-3.12a3.85,3.85,0,0,0,2.62-4.62,3.81,3.81,0,0,0-4.62-2.62Z" transform="translate(-28.27 -8.63)"/><path class="cls-1" d="M189.86,85,170.09,65.2c-1-1-2-2-2.94-3a19.71,19.71,0,0,1-1.7-2.05,32.21,32.21,0,0,1-1.91-3,31.06,31.06,0,0,1-1.41-2.83c.28.62-.19-.51-.27-.72-.22-.6-.42-1.2-.6-1.81-.3-1-.55-2-.76-3-.1-.5-.18-1-.26-1.52.11.7,0,.11,0,0,0-.34-.07-.68-.1-1a31.47,31.47,0,0,1,.14-6.51c-.09.75,0,0,0-.19l.15-.85c.09-.45.18-.9.29-1.35a34,34,0,0,1,1-3.31c.08-.22.16-.44.25-.65,0,0,.4-1,.2-.52l.23-.52.3-.63a33.06,33.06,0,0,1,1.73-3.07c.29-.45.59-.9.9-1.33.17-.25.35-.49.53-.73-.1.13-.39.47.08-.09.7-.85,1.43-1.67,2.2-2.45s1.61-1.5,2.46-2.2c.07-.06.56-.43.1-.08l.58-.43c.53-.38,1.07-.74,1.63-1.09a29.91,29.91,0,0,1,2.94-1.61c.21-.1,1.34-.59.71-.33.59-.24,1.19-.46,1.79-.67q1.49-.49,3-.84c.51-.12,1-.22,1.53-.31l.68-.11c.9-.15-.46,0,.37,0a39.43,39.43,0,0,1,6.52,0c1.1.09-.46-.08.2,0l.85.13,1.35.27a29.54,29.54,0,0,1,3.34.94,24,24,0,0,1,5.43,2.65c.45.28.9.58,1.33.89.25.17.49.35.73.53-.13-.1-.47-.39.1.08.85.7,1.67,1.42,2.45,2.2s1.5,1.61,2.21,2.45c.06.07.43.56.08.09l.43.58c.38.53.74,1.07,1.09,1.63a29.78,29.78,0,0,1,1.63,2.92c.21.42.41.84.59,1.27-.27-.62,0,.08.09.23l.36,1c.34,1,.64,2,.88,3,.13.51.24,1,.33,1.52.05.22.09.45.13.68s.15,1,.06.36a31.47,31.47,0,0,1,.15,6.51l-.09.85c0,.19-.13.94,0,.2q-.1.67-.24,1.35a29.79,29.79,0,0,1-.83,3.35c-.15.5-.32,1-.5,1.48-.1.27-.2.54-.31.81,0,.11-.28.66,0,.07a30.57,30.57,0,0,1-1.58,3.13A30,30,0,0,1,209,60.15c-.14.2-.29.39-.43.58.38-.5-.1.12-.2.23-.42.52-.86,1-1.32,1.51s-.8.82-1.2,1.23L185.16,84.36l-.6.6a3.75,3.75,0,0,0,5.3,5.31L210.3,69.82c5.11-5.11,9-11,10.67-18.19a35.44,35.44,0,0,0-5.32-28A35.08,35.08,0,0,0,190.47,8.81a34.48,34.48,0,0,0-27.08,9.39A35.26,35.26,0,0,0,163,68.69c7,7,13.94,13.94,20.9,20.9l.68.68a3.75,3.75,0,0,0,5.3-5.31Z" transform="translate(-28.27 -8.63)"/><path class="cls-1" d="M187.21,45.24a6.13,6.13,0,0,1-.74-.05l1,.14a6,6,0,0,1-1.38-.39l.9.38a5.62,5.62,0,0,1-1.2-.72l.76.59a6.17,6.17,0,0,1-.89-.88l.59.76a6.36,6.36,0,0,1-.72-1.2l.38.89a5.93,5.93,0,0,1-.38-1.37l.13,1a6,6,0,0,1,0-1.47l-.13,1a5.93,5.93,0,0,1,.38-1.37l-.38.89a6,6,0,0,1,.72-1.19l-.59.75a6.73,6.73,0,0,1,.89-.88l-.76.59A5.62,5.62,0,0,1,187,42l-.9.38a5.55,5.55,0,0,1,1.38-.38l-1,.13a6.11,6.11,0,0,1,1.48,0L187,42a5.36,5.36,0,0,1,1.37.38l-.89-.38a5.62,5.62,0,0,1,1.2.72l-.76-.59a6.1,6.1,0,0,1,.88.88l-.58-.75a6,6,0,0,1,.71,1.19l-.38-.89a5.49,5.49,0,0,1,.39,1.37l-.14-1a5.17,5.17,0,0,1,0,1.47l.14-1a5.49,5.49,0,0,1-.39,1.37l.38-.89a6.32,6.32,0,0,1-.71,1.2l.58-.76a5.63,5.63,0,0,1-.88.88l.76-.59a5.62,5.62,0,0,1-1.2.72l.89-.38a5.81,5.81,0,0,1-1.37.39l1-.14a6.13,6.13,0,0,1-.74.05,3.75,3.75,0,0,0,0,7.5,9,9,0,0,0,5.09-1.57,9.79,9.79,0,0,0,3.57-4.74,9,9,0,0,0-2.7-9.63,9.66,9.66,0,0,0-5.59-2.24,9,9,0,0,0-8.52,5.08,9.7,9.7,0,0,0-.72,6,8.69,8.69,0,0,0,2.85,4.78,9.39,9.39,0,0,0,6,2.29,3.75,3.75,0,0,0,0-7.5Z" transform="translate(-28.27 -8.63)"/></svg>