<svg id="Capa_1" data-name="Capa 1" xmlns="http://www.w3.org/2000/svg" viewBox="0 0 182.66 254.6"><defs><style>.cls-1{fill:#fff;}</style></defs><path class="cls-1" d="M143.59,8.68H77.17a12.57,12.57,0,0,0-3.92.26,46.1,46.1,0,0,0-5.11,2A75.23,75.23,0,0,0,49.26,23.73a100.68,100.68,0,0,0-22.19,29.9C18.71,70.46,14.33,89,12.32,107.56a232.22,232.22,0,0,0,2.87,70.64c3.39,16.74,9.23,33.21,18.44,47.66a100.47,100.47,0,0,0,23.65,26.06A74.36,74.36,0,0,0,75,262.1a19,19,0,0,0,2.91,1,9.75,9.75,0,0,0,2.16.1h58.41c1.17,0,2.37.06,3.55,0a17.55,17.55,0,0,0,4.67-1.15,44.9,44.9,0,0,0,15.84-10.76c7.92-8,13.49-18.08,17.7-28.45,7-17.15,10.2-35.7,11.92-54a357.83,357.83,0,0,0,1.39-38.74A306.83,306.83,0,0,0,191,93.84c-2.29-17.19-6.22-34.35-13.63-50.11-4.35-9.26-10.05-18.15-17.55-25.18a45.42,45.42,0,0,0-13.65-9.12,15.36,15.36,0,0,0-1.87-.66c-3.13-.78-4.46,4-1.33,4.82a20.32,20.32,0,0,1,2,.71c-1-.36.09,0,.49.23l1.26.62c1,.53,2,1.11,3,1.73.56.35,1.11.73,1.65,1.11l.87.63.4.3c.59.44-.44-.35.15.12,1.35,1.07,2.66,2.2,3.91,3.39,1.47,1.4,2.86,2.87,4.19,4.4.72.84,1.42,1.7,2.1,2.56l.29.37c-.44-.56-.09-.11,0,0l.48.64,1.16,1.6c7.78,11,12.42,22.88,15.94,35.77,5.71,20.89,7.55,42.72,7.77,64.31.22,22.63-1.13,45.56-6.34,67.65a148.09,148.09,0,0,1-7.08,22.42c-.27.65-.39.94-.81,1.89-.34.77-.68,1.53-1,2.29q-1,2.11-2.08,4.19-2,3.76-4.29,7.32c-.72,1.09-1.46,2.16-2.23,3.22-.32.44-.65.87-1,1.3.47-.62-.17.22-.29.36s-.38.49-.58.73a63.07,63.07,0,0,1-4.33,4.78,50.66,50.66,0,0,1-4.17,3.71c-.17.14-.86.65-.12.1l-.44.34-1.05.76c-.61.43-1.22.84-1.85,1.24a38.21,38.21,0,0,1-3.48,1.95c-.12.06-1.56.75-1.58.72s.76-.3.21-.09l-.37.15-.69.26a20.92,20.92,0,0,1-2.3.69l-.84.16c-.61.13.64,0,.29,0l-.31,0c-12.5.07-25,0-37.49,0H79.41c-.15,0-.75-.1-.85,0,.16-.16.83.23.61.08a4.68,4.68,0,0,0-1-.32c-.72-.24-1.44-.51-2.15-.8a5.24,5.24,0,0,1-.69-.28c.89.54,0,0-.28-.13-.57-.25-1.12-.51-1.68-.77-1.38-.66-2.74-1.37-4.07-2.11q-2.41-1.35-4.71-2.88c-.87-.57-1.72-1.15-2.56-1.75l-1.3-.94-.59-.45-.36-.27c-.56-.42.25.2-.1-.08A95,95,0,0,1,48.35,237c-1-1.06-1.91-2.15-2.83-3.25-.48-.57-1-1.15-1.41-1.73-.24-.29-.47-.59-.71-.89-.08-.1-.36-.48,0-.07-.18-.22-.35-.45-.51-.67-2-2.65-3.88-5.4-5.63-8.22a121.7,121.7,0,0,1-10-20.22c-7.35-19.13-10.44-39.66-11.09-60.07-.69-21.87,1-44.12,7.27-65.17a124.93,124.93,0,0,1,8.77-22.08q2.39-4.62,5.19-9C38.21,44.29,39.09,43,40,41.7c.44-.62.88-1.23,1.34-1.84L42,39c.08-.11.36-.48,0,0l.49-.63a89.33,89.33,0,0,1,11-11.72c.87-.77,1.76-1.52,2.66-2.25.4-.33.81-.65,1.22-1s-.47.36-.05,0l.34-.26c.23-.18.45-.35.68-.51,1.57-1.17,3.19-2.27,4.84-3.31a63.86,63.86,0,0,1,7.82-4.2l.73-.33c.45-.19.07,0-.19.08.14,0,.26-.11.39-.16.39-.15.77-.31,1.16-.45s1-.36,1.56-.55c.87-.3-.54-.06-.1,0,1.12.1,2.3,0,3.43,0h65.52C146.81,13.68,146.81,8.68,143.59,8.68Z" transform="translate(-10.89 -8.65)"/><path class="cls-1" d="M90.15,8.77a24,24,0,0,0-5.08,1.82A49.39,49.39,0,0,0,73.58,18,74,74,0,0,0,59.34,34.42,120.19,120.19,0,0,0,46,63.31C41.28,77.83,38.66,93,37.13,108.12c-1,10.31-1.29,20.65-1.78,31a182.86,182.86,0,0,0,.23,20.14,189.89,189.89,0,0,0,4.72,32.1,136,136,0,0,0,13.52,35.29,96.41,96.41,0,0,0,26.82,30.53,88.23,88.23,0,0,0,8.92,5.71c2.81,1.57,5.33-2.75,2.52-4.32a87.35,87.35,0,0,1-29.24-26.89,117.79,117.79,0,0,1-15.63-33.82,161.52,161.52,0,0,1-4-16.94c-1-5.54-1.59-9.85-2.12-15.38a194.84,194.84,0,0,1-.85-23.17c.05-1.86.12-3.72.25-5.58.34-4.88.3-9.8.57-14.7a244.6,244.6,0,0,1,7-48A130.4,130.4,0,0,1,60.2,42.66a95.08,95.08,0,0,1,7-10.74c.38-.5-.26.33.13-.16.15-.19.3-.39.46-.58l.87-1.08c.59-.7,1.18-1.4,1.79-2.08q1.65-1.85,3.42-3.56,1.59-1.55,3.3-3c.52-.43,1-.85,1.58-1.27-.73.58.16-.12.36-.27s.53-.39.8-.58a46.51,46.51,0,0,1,5.5-3.4c.74-.39,1.48-.75,2.24-1.09l.47-.2c-.22.1-.59.24,0,0l.86-.33c.74-.28,1.49-.49,2.25-.71l.29-.07a2.52,2.52,0,0,0,1.75-3.07,2.55,2.55,0,0,0-3.08-1.75Z" transform="translate(-10.89 -8.65)"/><path class="cls-1" d="M114.7,8.77A35.56,35.56,0,0,0,108.58,12a73.42,73.42,0,0,0-13.7,11.6,105.63,105.63,0,0,0-16.23,23.2A158.72,158.72,0,0,0,65,84.88c-4.22,18.38-5.91,37.32-6.08,56.15-.17,18.52,1.16,37.24,5.55,55.28,3,12.4,7.58,24.61,14.43,35.42A77.85,77.85,0,0,0,97.22,252,61.17,61.17,0,0,0,113.53,261a33.27,33.27,0,0,0,9.21,2.24c.13,0,.26,0,.4,0a2.5,2.5,0,0,0,0-5l-.42-.05c-.71-.07.73.12.14,0l-.71-.11a40.34,40.34,0,0,1-4.35-1q-1.53-.45-3-1c-.55-.2-1.09-.4-1.64-.62l-.85-.35c.83.33-.14-.06-.43-.19a58.57,58.57,0,0,1-7.91-4.27c-1.46-.93-2.87-1.94-4.25-3-.28-.21.5.4.09.07l-.24-.18-.48-.38-1.19-1c-.74-.62-1.46-1.25-2.16-1.9-1.56-1.42-3-2.92-4.46-4.47-.74-.81-1.46-1.63-2.16-2.47-.36-.43-.72-.87-1.07-1.31-.18-.23-.36-.45-.53-.68s-.36-.46,0,0c-.11-.16-.23-.31-.35-.47A88.75,88.75,0,0,1,78.9,221.7a107.15,107.15,0,0,1-6.92-17C67,189,64.79,172.45,64.1,156a277.28,277.28,0,0,1,3.41-58.41,196.82,196.82,0,0,1,5.26-22.72Q74.22,70,76,65.18c1.12-3,2.21-5.74,3.41-8.42A123,123,0,0,1,87,42.25c1.26-2,2.6-4.07,4-6q1-1.34,1.95-2.64a4.19,4.19,0,0,1,.26-.33l.43-.55,1.07-1.32a84.39,84.39,0,0,1,7.54-8c1.13-1.06,2.29-2.09,3.49-3.07.52-.43,1-.85,1.59-1.27-.76.6.13-.1.33-.25l.78-.57a48.4,48.4,0,0,1,7.79-4.67c.58-.27-.71.29-.21.09a2.56,2.56,0,0,0,1.74-3.07,2.52,2.52,0,0,0-3.07-1.75Z" transform="translate(-10.89 -8.65)"/><path class="cls-1" d="M119.5,25.8A23.84,23.84,0,0,0,116,29.05a63.3,63.3,0,0,0-7.55,10.42,110.1,110.1,0,0,0-8.95,19.68A177.46,177.46,0,0,0,92,89.55a297.59,297.59,0,0,0-3.63,43.91A303.54,303.54,0,0,0,91,179.75a178.08,178.08,0,0,0,7.39,32.32,110,110,0,0,0,9.5,21.08,65.74,65.74,0,0,0,8.74,11.71,28.12,28.12,0,0,0,5,4.39l.21.14c2.76,1.67,5.28-2.65,2.53-4.32-.3-.18-.57-.4-.86-.6s.63.5,0,0L123,244c-.45-.38-.9-.78-1.33-1.18a47.56,47.56,0,0,1-3.45-3.65c-.33-.39-.66-.78-1-1.18l-.48-.61c-.23-.29-.17-.22,0,.07l-.27-.35c-.75-1-1.48-2-2.18-3.06a83.29,83.29,0,0,1-4.61-7.78q-1.22-2.33-2.31-4.71c-.41-.89-.8-1.79-1.18-2.69-.19-.44.1.25-.09-.2-.1-.24-.2-.47-.29-.71-.2-.49-.4-1-.59-1.46a156.26,156.26,0,0,1-8-28.89,258,258,0,0,1-3.92-41.7,325.93,325.93,0,0,1,2.15-46.22A198.19,198.19,0,0,1,102.21,67c1.23-4.1,2.63-8.16,4.24-12.14l.51-1.25c.18-.42-.14.32.11-.25.09-.22.19-.43.28-.65.36-.83.73-1.66,1.12-2.49.68-1.46,1.39-2.91,2.14-4.33a78.78,78.78,0,0,1,4.17-7.09c.61-.92,1.24-1.83,1.9-2.72l.42-.57.2-.26c.22-.3-.42.53-.08.1s.54-.69.82-1a38,38,0,0,1,4.27-4.43c.42-.36-.42.32-.29.22a2.57,2.57,0,0,0,.9-3.42,2.51,2.51,0,0,0-3.42-.89Z" transform="translate(-10.89 -8.65)"/><path class="cls-1" d="M146.45,51.23c-4.93,0-9.55,2.78-12.95,6.17a40.18,40.18,0,0,0-7.92,12.05,93.85,93.85,0,0,0-6.39,21.93,221.59,221.59,0,0,0-3,35.36A296.8,296.8,0,0,0,118,166.06a148,148,0,0,0,5.35,26.71,67.88,67.88,0,0,0,7.38,16.58c3.34,5.17,8.43,11,15,11.68,4.75.53,9.47-2.4,12.65-5.63a38.36,38.36,0,0,0,7.38-11.34,92.8,92.8,0,0,0,6.14-20.57,222,222,0,0,0,3.46-33,340.86,340.86,0,0,0-.72-40.93,166.9,166.9,0,0,0-4.46-28.46,69,69,0,0,0-6.76-17.38c-3.11-5.34-7.89-10.88-14.27-12.16a13.56,13.56,0,0,0-2.62-.29c-3.21,0-3.22,5,0,5,.31,0,.62,0,.92,0,.72,0-.68-.13-.1,0l.6.11a11.55,11.55,0,0,1,1.28.35c.23.07.44.16.67.24.48.17,0-.1-.23-.1a1.3,1.3,0,0,1,.45.2,15.23,15.23,0,0,1,1.54.83l.77.5c.29.2,1,.84.36.25A29.42,29.42,0,0,1,156.14,62c.16.18.3.37.46.56.4.48-.32-.44.07.08s.62.85.91,1.28c.62.91,1.2,1.85,1.75,2.81s1.18,2.21,1.71,3.35c.27.59.54,1.19.79,1.79l.18.44c.16.39.31.78.46,1.17A108.25,108.25,0,0,1,168,95.63a250.17,250.17,0,0,1,2.54,34.21,318.11,318.11,0,0,1-1.5,38.68,138.26,138.26,0,0,1-4.72,24.95q-.71,2.34-1.54,4.64c-.25.67-.51,1.34-.77,2l-.18.43c-.16.39-.33.77-.5,1.15a46.27,46.27,0,0,1-3.35,6.2c-.27.41-.55.82-.84,1.22-.15.2-.31.4-.46.61-.26.38.33-.41.13-.16l-.27.34c-.55.68-1.12,1.34-1.73,2s-1.12,1.06-1.71,1.56c-.12.1-.25.19-.36.29.71-.62.19-.15,0,0l-.85.58a16.26,16.26,0,0,1-1.53.86c-.16.08-1,.43-.44.21s-.27.1-.45.17a12.39,12.39,0,0,1-1.32.38l-.58.12c-.82.17.31,0,0,0s-.65.06-1,.06h-.45c-.47,0-.61-.19.07,0-.38-.13-.81-.16-1.2-.27l-.6-.2-.33-.13c-.56-.19.58.29.16.07a25,25,0,0,1-3.15-1.86c-.57-.41.42.35,0,0l-.38-.3c-.31-.26-.61-.53-.91-.8-.63-.58-1.23-1.2-1.8-1.84q-.45-.5-.87-1c-.14-.16-.27-.33-.4-.5s-.39-.53.07.1l-.32-.43c-.63-.84-1.22-1.71-1.77-2.6a53.93,53.93,0,0,1-3.64-6.94c-.07-.17-.53-1.23-.29-.65l-.37-.93c-.32-.77-.61-1.55-.9-2.33-.6-1.63-1.14-3.27-1.64-4.93-1.16-3.85-2.1-7.76-2.88-11.7a211.48,211.48,0,0,1-3.52-32.05,303.43,303.43,0,0,1,.68-39.43,137.08,137.08,0,0,1,4.75-27c.47-1.59,1-3.17,1.55-4.73.26-.71.53-1.42.82-2.13l.22-.55c.26-.62-.21.48.06-.13.15-.35.3-.7.46-1a46.08,46.08,0,0,1,3.68-6.72q.43-.66.9-1.29l.41-.54c-.51.69.13-.16.27-.32a26.38,26.38,0,0,1,1.88-2.07c.56-.56,1.15-1.08,1.76-1.59l.23-.18c.32-.28-.54.38-.19.15l.39-.29c.3-.21.6-.42.91-.62.54-.34,1.1-.66,1.67-.95.25-.12.51-.22.76-.35-.69.37-.18.07.25-.08a17.56,17.56,0,0,1,2.56-.68c.64-.12-.76.06-.13,0l.43,0,.69,0C149.67,56.22,149.68,51.22,146.45,51.23Z" transform="translate(-10.89 -8.65)"/><path class="cls-1" d="M132.59,103.07a75.94,75.94,0,0,1,2.91,12.64,112.53,112.53,0,0,1,.51,31.18,101.67,101.67,0,0,1-5.47,22.35,2.53,2.53,0,0,0,1.75,3.08,2.56,2.56,0,0,0,3.08-1.75,111.7,111.7,0,0,0,3.3-64.35c-.37-1.5-.75-3-1.26-4.48a2.55,2.55,0,0,0-3.07-1.74,2.52,2.52,0,0,0-1.75,3.07Z" transform="translate(-10.89 -8.65)"/><path class="cls-1" d="M55.73,35.8c3.88-2.29,9.3-3.92,14-2.89a11.48,11.48,0,0,1,5,2.39,22,22,0,0,0,5.64,3.49,24.36,24.36,0,0,0,10.59,1.69,25.87,25.87,0,0,0,6.17-1c2.45-.77,1.4-4.63-1.07-3.86a19.51,19.51,0,0,1-4.58.8,20.55,20.55,0,0,1-10.22-1.6,37.87,37.87,0,0,1-5.27-3.58A14.74,14.74,0,0,0,70.47,29a22.18,22.18,0,0,0-10.72.8,27.72,27.72,0,0,0-6,2.57c-2.22,1.31-.21,4.76,2,3.45Z" transform="translate(-10.89 -8.65)"/><path class="cls-1" d="M42.58,61.82c-.81.35-.53.21-.17.08s.8-.28,1.21-.4,1-.28,1.54-.39q.47-.11.93-.18a6.65,6.65,0,0,1,.9-.13,19.75,19.75,0,0,1,11.48,2.1c2.21,1.2,4.07,2.91,6.35,4a22.23,22.23,0,0,0,6.06,1.89,30.32,30.32,0,0,0,11.54-.56,30.67,30.67,0,0,0,6.18-2.11,2.5,2.5,0,1,0-2.52-4.31l-.31.13c-.39.2.67-.26.09,0l-.65.26a32.16,32.16,0,0,1-3.37,1.06,23.89,23.89,0,0,1-10,.69,17,17,0,0,1-5.86-2c-2.11-1.22-3.92-2.82-6.16-3.86a24.35,24.35,0,0,0-12.58-2.24,23.26,23.26,0,0,0-7.21,1.73,2.51,2.51,0,0,0-.9,3.42,2.57,2.57,0,0,0,3.42.9Z" transform="translate(-10.89 -8.65)"/><path class="cls-1" d="M35.23,89.48a16.21,16.21,0,0,1,5.66-1A16.1,16.1,0,0,1,52,92.11c6.19,5.19,14.79,5,22.32,3.55a42.51,42.51,0,0,0,5.88-1.48c3-1,1.73-5.86-1.33-4.82a42,42,0,0,1-4.81,1.27,36.26,36.26,0,0,1-9.89.85,18.49,18.49,0,0,1-5.2-1,15.26,15.26,0,0,1-4.4-2.72,20.89,20.89,0,0,0-13-4.34,22.53,22.53,0,0,0-7.72,1.22,2.56,2.56,0,0,0-1.74,3.07,2.52,2.52,0,0,0,3.07,1.75Z" transform="translate(-10.89 -8.65)"/><path class="cls-1" d="M30.12,116.89a18.17,18.17,0,0,1,5.66-1,18.49,18.49,0,0,1,11.91,3.36c6.48,4.69,14.92,4.5,22.49,3.26a45,45,0,0,0,6-1.33c3.07-.93,1.76-5.76-1.33-4.82a41.66,41.66,0,0,1-14.92,1.85,21,21,0,0,1-5.42-1,17.52,17.52,0,0,1-4.59-2.55,22.8,22.8,0,0,0-13.2-3.81,24.85,24.85,0,0,0-7.89,1.2A2.57,2.57,0,0,0,27,115.14a2.53,2.53,0,0,0,3.08,1.75Z" transform="translate(-10.89 -8.65)"/><path class="cls-1" d="M30.12,143.89l.42-.09c.25,0,1.43-.2.68-.11a36.51,36.51,0,0,1,4.18-.27,28,28,0,0,1,12,2.44c2.17,1,4.11,2.41,6.39,3.24A23.91,23.91,0,0,0,60,150.38a37.8,37.8,0,0,0,11.56-1,37.8,37.8,0,0,0,6-1.81,2.58,2.58,0,0,0,1.75-3.08,2.52,2.52,0,0,0-3.08-1.74,35.78,35.78,0,0,1-15.36,2.69,19.67,19.67,0,0,1-5.73-1.16c-2-.75-3.79-2.11-5.77-3a34.08,34.08,0,0,0-13.24-2.86,31.28,31.28,0,0,0-7.35.65c-3.14.7-1.81,5.52,1.33,4.82Z" transform="translate(-10.89 -8.65)"/><path class="cls-1" d="M30.61,176a9,9,0,0,1,.95-.55l.55-.26c.32-.16-.52.17.08,0s1.13-.4,1.71-.55c.3-.08.61-.15.92-.21.14,0,1-.18.58-.12a19.09,19.09,0,0,1,2.62-.14,20.3,20.3,0,0,1,5.81.95,37.6,37.6,0,0,1,7.2,3.33,28.84,28.84,0,0,0,8,3,26.35,26.35,0,0,0,13-.54,21.81,21.81,0,0,0,6.31-2.86,2.57,2.57,0,0,0,.9-3.42,2.52,2.52,0,0,0-3.42-.9,12.25,12.25,0,0,1-1.25.76c-.46.25-.93.48-1.4.7,0,0-.61.26-.27.12l-.32.13-1.13.41a21,21,0,0,1-11.64.65c-5.4-1.26-9.78-4.88-15.12-6.38a23.63,23.63,0,0,0-11.45-.48,14,14,0,0,0-5.08,2,2.57,2.57,0,0,0-.9,3.42,2.52,2.52,0,0,0,3.42.89Z" transform="translate(-10.89 -8.65)"/><path class="cls-1" d="M36.26,201.61a22.5,22.5,0,0,1,16,0c2.17.82,4,2.25,6.07,3.23a24.29,24.29,0,0,0,6.23,2,33.21,33.21,0,0,0,11.51-.12,28.66,28.66,0,0,0,5.61-1.49,2.57,2.57,0,0,0,1.75-3.08,2.51,2.51,0,0,0-3.07-1.74,27.35,27.35,0,0,1-14.48,1.61,19.62,19.62,0,0,1-5.74-1.87,58.86,58.86,0,0,0-6.56-3.38,26.63,26.63,0,0,0-12.1-1.45,25.14,25.14,0,0,0-6.53,1.41,2.56,2.56,0,0,0-1.75,3.07,2.52,2.52,0,0,0,3.08,1.75Z" transform="translate(-10.89 -8.65)"/><path class="cls-1" d="M49.35,230.11c.46-.11.94-.2,1.42-.27.18,0,.83-.12.29-.05l.91-.1c.72-.08,1.44-.13,2.16-.16a27.88,27.88,0,0,1,11.3,1.71c1.89.74,3.61,1.84,5.53,2.54a26.8,26.8,0,0,0,5.6,1.3,42.91,42.91,0,0,0,10.38.08,46.38,46.38,0,0,0,6-1c3.13-.77,1.81-5.59-1.32-4.82l-1.21.25-1.39.25-.86.13L88,230l-.4.05a41.29,41.29,0,0,1-10.18.11A24.34,24.34,0,0,1,72.29,229c-1.91-.7-3.63-1.81-5.54-2.55a31.51,31.51,0,0,0-11.86-1.9,33.63,33.63,0,0,0-6.87.77c-3.13.75-1.81,5.57,1.33,4.83Z" transform="translate(-10.89 -8.65)"/></svg>